<?xml version="1.0" encoding="UTF-8"?>
<svg id="uuid-1aa1b47b-185d-4244-b28f-ecbaace6bcd2" data-name="Layer_1" xmlns="http://www.w3.org/2000/svg" viewBox="0 0 1024 1024">
  <defs>
    <style>
      .uuid-90a9f6d3-4cc1-4a1f-be1f-b8ff67acfe6c {
        fill: #fee784;
      }

      .uuid-e2261785-f882-49bb-86e3-b8d82695ab63 {
        fill: #fec822;
      }

      .uuid-6a8acdc6-fa14-4630-9ba5-e854f0146800 {
        fill: #fefefe;
      }
    </style>
  </defs>
  <!-- Full-canvas white rect removed so PNG export can use transparency outside the hex mark -->
  <path class="uuid-6a8acdc6-fa14-4630-9ba5-e854f0146800" d="M577.98,420.61c.15,3.87,3.92,3.63,6.06,5.07,8.58,5.77,16.62,12.38,25.93,17.04,1.98,1.29,3.97,2.57,5.95,3.86,3.93,4.21,9.17,6.63,13.8,9.87.83.58,3.25.38,3.74-.32,1.98-2.75,5.13-3.66,7.63-5.55,7.73-5.87,15.22-12.1,23.3-17.44,8.39-5.55,18.19-9.07,27.92-10.08,11.99-1.25,23.99-1.92,35.92-4.21,8.63-1.66,16.47-4.84,23.72-9.35,11.61-7.22,21.12-16.86,27.41-29.03,5.19-10.04,8.47-20.87,8.64-32.38.13-8.85.48-17.73-2.03-26.37-1.59-5.5-4.33-10.58-9.8-12.66-4.62-1.76-7.46,2.25-10.65,5.1-9.44,8.42-17.22,18.52-27.54,26.06-9.24,6.74-18.84,3.68-28.26-.94-8.89-4.36-13.13-12.31-17-20.49-2.07-4.38-4.5-8.8-1.3-14.42,4.25-7.45,10.39-13.19,15.86-19.46,7.48-8.58,16.13-16.15,24.11-24.31,4.8-4.91,3.68-12.59-3-15.58-6.39-2.85-13.49-2.97-20.2-3.83-7.25-.93-14.75-.77-22.4,1.07-7.57,1.83-15.08,3.48-22.28,6.48-8.86,3.69-17.48,8.13-24.67,14.29-8.63,7.4-16.95,15.47-22.26,25.84-6.01,11.76-11.03,23.84-10.7,37.45.16,6.49-.16,12.99.09,19.47.15,3.9-1.42,7.41-2.9,10.51-4.09,8.59-10.33,15.87-16.96,22.67-8.54,8.77-17.26,17.37-26.01,25.93-2.06,2.01-2.12,4.22.17,5.09,4.31,1.63,7.14,5.63,11.69,6.69,1.34,2.3,2.78,4.47,5.99,3.93ZM456.07,414.61c1.75-3.17,6.45-2.36,7.94-5.88,1.64-.38,3.27.12,4.76-1.8,2.07-2.67,5.5-4.48,8.36-5.83,4.11-1.93,2.62-3.24.88-5.19-2.43-2.72-5.49-4.99-7.47-7.99-6.94-10.46-15.57-19.57-23.64-29.06-9.5-11.17-19.29-22.01-24.09-36.06-1.72-5.04-1.88-10.75.56-16.17,3.21-7.12,9.22-11.68,14.85-16.4,5.51-4.62,11.53-9.11,19.73-7.5,3.15.62,5.53-1.9,8.27-2.96,7.5-2.89,13.88-7.83,21.12-11.21,7.87-3.67,10.46-7.65,8.48-15.39-1.59-6.23-3.27-12.69-6.69-18.33-4.38-7.22-8.95-14.32-13.5-21.44-3.55-5.57-12.43-9.92-17.36-8.34-7.74,2.48-15.56,4.81-23.04,7.93-3.99,1.67-8.4,3.22-10.4,8.21-1.93,4.81-9.84,7.55-14.26,5.02-2.26-1.29-4.31-1.18-6.53-1.47-11.28-1.48-20.55,4.11-29.9,8.88-8.73,4.46-17.06,9.71-25.52,14.66-8.63,5.05-17.13,10.37-24.21,17.14-8.99,8.61-18.48,16.86-25.78,27.22-3.81,5.42-7.31,10.97-10.65,16.65-4.77,8.13-8.43,16.89-15.23,23.85-2.94,3.01-5.83,6.51-7.94,10.08-4.76,8.04-9.98,15.78-13.7,24.58-3.24,7.68-5.31,15.56-6.79,23.45-1.73,9.24,0,18.66,3.68,27.56,2.71,6.55,11.71,9.98,18.03,6.71,3.26-1.69,6.67-1.42,9.87.04,5.33,2.43,9.9.07,12.39-5.07,1.77-3.65,1.85-7.55,3.45-11.24,4.55-10.49,10.14-20.03,18.44-27.99,7.53-7.22,15.42-12.89,26.67-13.01,11.14-.13,19.92,4.31,26.92,12.14,4.87,5.45,9.63,11.06,14.24,16.78,7.51,9.33,15.42,18.42,22.81,27.82,3.87,4.92,9.39,8.7,11.74,14.96.5,1.32,2.5,3.72,5.17,1.89,6.58-4.51,13.25-8.89,19.78-13.48,5.26-3.7,10.31-7.69,15.55-11.41,1.05-.75,3.22.02,3-2.36ZM659.93,490.68c-2.37-1.6-4.02-2.76-5.72-3.86-8.48-5.49-17.3-10.51-25.37-16.54-10.99-8.21-22.71-15.31-33.83-23.32-6.9-4.98-14.45-9.27-21.36-14.31-7.34-5.36-14.89-10.44-22.37-15.54-10.82-7.37-21.6-14.79-32.25-22.42-4.18-3-8.35-6.3-13.79-2.06-5.06,3.95-10.23,7.76-15.53,11.39-5.83,4-11.66,7.97-17.3,12.26-5.06,3.86-11,6.62-15.87,10.68-5.04,4.21-10.67,7.51-15.88,11.42-7.92,5.94-16.39,11.15-24.55,16.79-5.18,3.58-10.11,7.53-15.31,11.07-7.49,5.1-15.41,9.62-22.62,15.09-4.99,3.78-10.12,7.48-15.34,10.76-9.69,6.09-18.86,12.94-28.56,18.99-7.44,4.64-14.29,10.21-21.55,15.16-6.9,4.71-14.09,9-20.96,13.75-6.9,4.76-13.91,9.37-20.82,14.11-7.87,5.4-16.04,10.4-23.71,16.13-1.16.86-2.04,2.97-4.07,1.97-2.06-1.02-.87-2.95-.87-4.43-.05-43.45-.04-86.9-.05-130.35,0-3.05.19-6.07-2.49-8.51-5.37-4.88-7.06-11.49-7.58-18.36-.38-4.97.23-10.01-.2-14.97-.78-8.93,1.46-17.49,4.6-25.4,3.76-9.48,8.4-18.83,15.64-26.85-3.87-1.76-5.9,1.24-8.2,2.57-9.73,5.61-19.49,11.2-28.85,17.39-6.76,4.48-11.97,9.64-11.52,19.5.89,19.77.23,39.61.24,59.42.03,69.75.07,139.5.1,209.25,0,5.73,2.97,9.78,7.47,12.85,3.36,2.29,6.89,4.31,10.32,6.5,4.99,3.18,9.96,6.39,14.92,9.6,6.18,3.99,12.35,7.98,18.51,12,6.02,3.92,11.99,7.93,18.05,11.79,6.85,4.36,13.78,8.58,20.66,12.89,4.84,3.04,9.65,6.13,14.46,9.22,6.01,3.86,11.99,7.78,18.02,11.62,8.58,5.46,17.2,10.85,25.78,16.29,6.49,4.12,12.98,8.23,19.42,12.43,4.68,3.06,9.19,6.38,13.9,9.39,8.13,5.2,16.42,10.17,24.54,15.4,9.62,6.19,19.22,12.43,28.94,18.42,10.25,6.32,20.46,12.75,30.64,19.16,10.78,6.79,21.27,14.11,32.43,20.27,4.59,2.53,9.64,4.64,15.43,1.14,4.36-2.64,8.88-5.06,13.3-7.64,8.49-4.94,16.77-10.22,25-15.51,8.39-5.4,16.61-11.24,25.11-16.36,15.76-9.49,31.01-19.78,46.66-29.42,10.55-6.5,20.76-13.74,31.2-20.44,12.24-7.85,24.3-16.05,36.93-23.34,6.74-3.89,12.65-9.2,19.38-13.08,9.06-5.23,17.77-10.96,26.56-16.58,5.92-3.79,11.94-7.39,17.73-11.43,7.9-5.52,16.59-9.92,24.56-15.35,8.29-5.65,16.78-11.05,25.24-16.36,6.96-4.36,10.62-9.99,10.64-17.24.24-88.73.17-177.46.14-266.19,0-1.57-.02-3.08-.82-4.72-3.19-6.57-8.36-10.81-14.48-14.59-3.95-2.44-4.59-1.18-4.56,2.24.05,6.36-1.78,12.12-3.8,18.13-2.85,8.48-7.79,15.38-13.42,21.87-2.14,2.47-2.99,4.6-2.99,7.64.05,50.77.04,101.55.05,152.32,0,1.9,0,3.81,0,6.45-7.46-5.15-14.15-9.72-20.92-14.09-9.7-6.26-19.25-12.76-28.92-19.07-4.55-2.97-8.71-6.69-13.57-8.95-3.68-1.71-4.57-3.74-4.55-7.38.11-21.47.01-42.95.09-64.42.02-4.5-1.84-6.46-6.4-6.42-13.33.12-26.66.11-39.99,0-4.25-.03-5.8,1.9-5.76,5.98.11,11.15.04,22.3.04,34.22ZM612.68,273.15c-3.78.01-6.08-1.77-8.1-3.13-13.32-8.98-27.52-16.49-41.03-25.13-10.57-6.76-21.69-12.6-32.25-19.42-3.86-2.49-8.14-5.19-13.59-4.86-3.81.24-6.09,2.25-8.96,4.01-5.78,3.55-6.91,6.91-2.25,11.68,1.48,1.51,1.9,3.34,2.74,4.81,4.07,7.06,7.68,14.45,1.3,22.39-1.04,1.29-1.59,3.88.6,5.19,8.66,5.15,17.13,10.67,25.91,15.54,15.32,8.51,30.18,17.78,45.38,26.46,2.8,1.6,5.46,3.42,8.66,4.39,2.3.7,2.91.33,2.95-1.89.12-5.66,2.65-10.83,4.68-15.76,3.37-8.22,7.66-16.21,13.96-24.29Z"/>
  <path class="uuid-e2261785-f882-49bb-86e3-b8d82695ab63" d="M659.93,490.68c0-11.92.07-23.07-.04-34.22-.04-4.08,1.51-6.01,5.76-5.98,13.33.1,26.66.11,39.99,0,4.56-.04,6.42,1.92,6.4,6.42-.08,21.47.03,42.95-.09,64.42-.02,3.64.86,5.67,4.55,7.38,4.86,2.26,9.02,5.98,13.57,8.95,9.67,6.31,19.21,12.81,28.92,19.07,6.77,4.37,13.46,8.94,20.92,14.09,0-2.64,0-4.54,0-6.45,0-50.77,0-101.55-.05-152.32,0-3.04.85-5.18,2.99-7.64,5.62-6.48,10.57-13.38,13.42-21.87,2.02-6.01,3.85-11.77,3.8-18.13-.03-3.42.62-4.68,4.56-2.24,6.12,3.78,11.29,8.02,14.48,14.59.8,1.64.82,3.15.82,4.72.03,88.73.1,177.46-.14,266.19-.02,7.25-3.68,12.88-10.64,17.24-8.46,5.3-16.95,10.71-25.24,16.36-7.97,5.43-16.66,9.83-24.56,15.35-5.78,4.04-11.81,7.64-17.73,11.43-8.79,5.62-17.51,11.36-26.56,16.58-6.74,3.89-12.65,9.2-19.38,13.08-12.63,7.28-24.69,15.49-36.93,23.34-10.44,6.7-20.65,13.94-31.2,20.44-15.65,9.65-30.9,19.93-46.66,29.42-8.51,5.12-16.72,10.97-25.11,16.36-8.23,5.29-16.51,10.57-25,15.51-4.42,2.57-8.94,5-13.3,7.64-5.8,3.5-10.85,1.39-15.43-1.14-11.16-6.16-21.65-13.48-32.43-20.27-10.18-6.41-20.39-12.84-30.64-19.16-9.72-5.99-19.32-12.23-28.94-18.42-8.12-5.23-16.4-10.19-24.54-15.4-4.71-3.01-9.22-6.33-13.9-9.39-6.43-4.21-12.93-8.32-19.42-12.43-8.59-5.45-17.21-10.84-25.78-16.29-6.03-3.84-12.01-7.76-18.02-11.62-4.81-3.09-9.62-6.18-14.46-9.22-6.87-4.32-13.81-8.53-20.66-12.89-6.06-3.86-12.03-7.87-18.05-11.79-6.16-4.01-12.34-8-18.51-12-4.97-3.21-9.94-6.42-14.92-9.6-3.43-2.18-6.96-4.21-10.32-6.5-4.5-3.07-7.47-7.12-7.47-12.85-.03-69.75-.07-139.5-.1-209.25,0-19.81.65-39.65-.24-59.42-.44-9.86,4.76-15.02,11.52-19.5,9.36-6.19,19.12-11.78,28.85-17.39,2.3-1.33,4.33-4.33,8.2-2.57-7.24,8.02-11.88,17.36-15.64,26.85-3.14,7.91-5.38,16.47-4.6,25.4.43,4.96-.18,10,.2,14.97.53,6.87,2.21,13.48,7.58,18.36,2.68,2.43,2.49,5.46,2.49,8.51.01,43.45,0,86.9.05,130.35,0,1.48-1.2,3.41.87,4.43,2.02,1,2.91-1.11,4.07-1.97,7.67-5.73,15.84-10.72,23.71-16.13,6.91-4.74,13.92-9.35,20.82-14.11,6.87-4.75,14.06-9.04,20.96-13.75,7.25-4.95,14.11-10.51,21.55-15.16,9.71-6.06,18.87-12.9,28.56-18.99,5.21-3.27,10.35-6.98,15.34-10.76,7.21-5.46,15.13-9.98,22.62-15.09,5.2-3.54,10.13-7.49,15.31-11.07,8.15-5.64,16.62-10.85,24.55-16.79,5.22-3.91,10.84-7.21,15.88-11.42,4.87-4.06,10.81-6.82,15.87-10.68,5.63-4.29,11.47-8.26,17.3-12.26,5.29-3.63,10.46-7.45,15.53-11.39,5.44-4.24,9.61-.93,13.79,2.06,10.64,7.63,21.43,15.05,32.25,22.42,7.48,5.1,15.03,10.19,22.37,15.54,6.91,5.04,14.46,9.33,21.36,14.31,11.12,8.02,22.84,15.12,33.83,23.32,8.07,6.03,16.89,11.05,25.37,16.54,1.7,1.1,3.36,2.26,5.72,3.86ZM722.46,671.94c4.01-.89,6.63-4,10.01-5.85,6.53-3.57,12.62-7.94,18.89-11.98,6.17-3.97,12.29-8.02,18.53-11.86,6-3.69,11.01-7.38,10.2-15.9-.83-8.74-.51-17.64-.06-26.44.25-4.85-1.5-5.73-5.82-5.56-7.98.32-15.99.02-23.99.12-4.1.05-7.7-.2-11.25-3.18-3.02-2.53-6.78-4.43-10.23-6.53-7.19-4.36-14.05-9.21-21.09-13.78-6.31-4.1-12.73-8.04-19.01-12.2-6.9-4.58-14.05-8.8-20.84-13.58-8.22-5.79-17.1-10.56-25.22-16.53-6.72-4.94-14.01-9.11-20.97-13.73-6.99-4.65-13.83-9.51-20.83-14.14-7.39-4.89-14.92-9.56-22.31-14.44-4.67-3.09-9.14-6.48-13.81-9.58-8.94-5.93-18.05-11.62-26.92-17.65-6.87-4.67-14.04-8.85-20.55-14.09-4.1-3.3-8.56-2.6-13.34.58-5.51,3.66-10.97,7.45-16.48,11.13-6.45,4.31-12.98,8.52-19.27,13.06-6.92,5-14.09,9.66-21.13,14.45-7.91,5.38-15.81,10.78-23.71,16.18-6.78,4.64-13.84,8.82-20.54,13.62-10.58,7.59-21.77,14.33-32.66,21.51-8.42,5.55-16.71,11.31-25.15,16.83-8.87,5.81-18.12,11.08-26.73,17.25-10.05,7.21-21.13,12.81-30.87,20.5-4.77,3.77-10.47,4.87-16.77,4.43-8.12-.57-16.32-.18-24.48-.1-1.62.01-3.93-.78-3.87,2.34.25,12.56-.27,25.16,1.84,37.65.25,1.47,1.18,1.9,2.01,2.49,4.46,3.15,8.93,6.29,13.53,9.23,8.68,5.56,17.47,10.96,26.18,16.49,4.62,2.94,9.16,6.02,14.24,9.37,0-2.63,0-4.62,0-6.61,0-21.3.08-42.61-.09-63.91-.03-3.48,1.14-5.7,3.83-7.71,2.36-1.76,4.8-3.63,7.2-5.1,11.15-6.83,22.03-14.07,33.09-21.02,2.18-1.37,4.35-4.34,6.95-3.12,2.52,1.18,1.02,4.49,1.03,6.81.09,40.44.15,80.89-.04,121.33-.02,3.92,1.51,6.2,4.06,8.66,1.25,1.21,2.71.6,3.96,1.58,7.87,6.17,16.53,11.24,24.98,16.48,15.93,9.87,31.6,20.14,47.42,30.17,10.35,6.56,20.45,13.51,30.87,19.92,10.36,6.38,20.28,13.49,30.99,19.3,5.03,2.73,9.59,6.45,15.6,7.36,7.74,1.17,12.65-4.08,18.33-7.54,6.41-3.9,12.58-8.33,19.02-12.03,8.38-4.81,16.38-10.21,24.51-15.34,10.39-6.56,20.58-13.54,30.82-20.35,12.45-8.28,25.05-16.43,37.89-24.12,7.1-4.25,13.59-9.4,21.05-13.14,6.03-3.02,8.55-8.14,8.47-15.55-.43-39.94-.24-79.88-.26-119.83,0-1.91-.15-3.87.75-5.78,9.03,6.2,18.21,11.43,26.85,17.54,7.01,4.97,14.84,8.75,21.68,14.11,2.46,1.93,3.11,3.81,3.1,6.6-.05,21.97-.04,43.94,0,65.91,0,1.75-.46,3.58.41,5.27Z"/>
  <path class="uuid-e2261785-f882-49bb-86e3-b8d82695ab63" d="M456.07,414.61c.22,2.38-1.95,1.62-3,2.36-5.24,3.72-10.3,7.71-15.55,11.41-6.52,4.59-13.2,8.97-19.78,13.48-2.67,1.83-4.68-.56-5.17-1.89-2.35-6.26-7.87-10.03-11.74-14.96-7.39-9.4-15.3-18.49-22.81-27.82-4.61-5.72-9.37-11.34-14.24-16.78-6.99-7.83-15.78-12.26-26.92-12.14-11.25.13-19.15,5.8-26.67,13.01-8.3,7.96-13.88,17.5-18.44,27.99-1.6,3.7-1.68,7.59-3.45,11.24-2.5,5.13-7.06,7.5-12.39,5.07-3.2-1.46-6.62-1.73-9.87-.04-6.32,3.28-15.33-.15-18.03-6.71-3.67-8.9-5.42-18.32-3.68-27.56,1.48-7.88,3.54-15.77,6.79-23.45,3.72-8.8,8.93-16.54,13.7-24.58,2.12-3.57,5.01-7.07,7.94-10.08,6.8-6.96,10.46-15.72,15.23-23.85,3.34-5.68,6.83-11.24,10.65-16.65,7.3-10.37,16.79-18.62,25.78-27.22,7.08-6.78,15.58-12.09,24.21-17.14,8.47-4.96,16.79-10.21,25.52-14.66,9.35-4.77,18.61-10.35,29.9-8.88,2.22.29,4.27.18,6.53,1.47,4.42,2.53,12.33-.21,14.26-5.02,2-4.98,6.4-6.54,10.4-8.21,7.48-3.12,15.3-5.45,23.04-7.93,4.93-1.58,13.8,2.77,17.36,8.34,4.54,7.12,9.12,14.22,13.5,21.44,3.42,5.64,5.1,12.1,6.69,18.33,1.98,7.74-.61,11.72-8.48,15.39-7.24,3.38-13.63,8.32-21.12,11.21-2.75,1.06-5.13,3.58-8.27,2.96-8.21-1.61-14.22,2.87-19.73,7.5-5.62,4.72-11.64,9.28-14.85,16.4-2.44,5.42-2.28,11.12-.56,16.17,4.79,14.05,14.59,24.89,24.09,36.06,8.07,9.48,16.7,18.59,23.64,29.06,1.99,3,5.04,5.27,7.47,7.99,1.74,1.95,3.23,3.26-.88,5.19-2.86,1.34-6.29,3.16-8.36,5.83-1.49,1.92-3.11,1.42-4.76,1.8-.25-2.2.63-4.44-1.49-6.46-6.98-6.66-13.27-13.95-19.39-21.41-4.63-5.64-10.96-9.76-14.6-16.35-1.58-2.87-3.97-4.05-6.98-1.68-1.27,1-2.37,2.27-3.73,3.1-4.36,2.66-3.15,6-.57,8.62,5.62,5.7,9.49,12.88,15.66,18.09,1.75,1.48,3.57,3.1,4.69,5.04,4.39,7.63,11.26,12.44,18.48,16.93ZM395.9,241.22c-11.66,5.49-22.78,10.62-33.3,17.09-12.66,7.79-24.96,15.86-35.61,26.41-6.54,6.47-12.85,13.18-18.25,20.49-4.76,6.45-7.9,14.1-11.66,21.27-5.69,10.84-15.19,18.89-21.27,29.54-4.32,7.57-6.94,15.62-9.85,23.69-1.52,4.21-1.03,8.74-2.49,12.68-1.78,4.79-1.81,8.87.22,13.5.91,2.07,1.6,2.83,3.75,2.74,2.29-.09,3.89-1.47,4.36-3.19,1.16-4.27,2.93-8.38,3.94-12.6,1.74-7.32,5.44-13.75,9.1-19.91,5.5-9.27,12.2-17.94,20.86-24.72,2.62-2.05,3.04-4.95,2.08-7.44-.96-2.49-1.65-5.08-2.66-7.55-2.15-5.27-1.84-10.39,1.2-15.22,1.04-1.66,2.76-2.15,3.67,0,2.21,5.24,5.21,9.99,8.11,14.84,2.68,4.5,4.89,5.19,10.01,4.21,2.47-.48,4.23-2.58,6.69-2.33,7.09.71,14.15-1.11,21.39,1.6,7.49,2.8,13.94,6.7,20.04,11.63,5.52,4.45,9.43,10.24,13.77,15.67,2.25,2.82,3.71,2.41,6.04.02,5.18-5.3,11.72-8.89,17.86-12.93,2.54-1.67,2.42-2.12.62-4.27-2.57-3.08-4.38-6.78-6.67-10.11-3.4-4.95-6.07-10.49-7.27-16.1-1.21-5.66-1.62-11.77.66-17.83,2.51-6.7,6.87-11.61,12.12-15.96,3.41-2.83,2.83-4.93-.23-7.62-3.3-2.9-6.89-5.68-9.06-9.62-4.7-8.54-9.05-17.24-8.19-27.96ZM440.24,229.45c2.03,5.38,6.24,8.96,8.1,14.05.69,1.88,2.53,4.95,5.4,2.52,3.89-3.31,8.53-5.08,12.88-7.5,1.83-1.02,5-2.34,2.46-5.37-2.82-3.36-5-7.11-7.41-10.72-.99-1.48-1.89-1.68-3.62-.85-5.84,2.77-11.81,5.25-17.8,7.88Z"/>
  <path class="uuid-e2261785-f882-49bb-86e3-b8d82695ab63" d="M571.99,416.68c-4.54-1.05-7.38-5.05-11.69-6.69-2.29-.87-2.23-3.07-.17-5.09,8.75-8.56,17.47-17.16,26.01-25.93,6.63-6.81,12.86-14.08,16.96-22.67,1.47-3.1,3.05-6.61,2.9-10.51-.26-6.48.06-12.98-.09-19.47-.33-13.62,4.69-25.69,10.7-37.45,5.3-10.38,13.63-18.44,22.26-25.84,7.19-6.16,15.81-10.59,24.67-14.29,7.2-3,14.71-4.65,22.28-6.48,7.65-1.84,15.15-2.01,22.4-1.07,6.7.86,13.81.98,20.2,3.83,6.68,2.98,7.79,10.67,3,15.58-7.98,8.17-16.63,15.73-24.11,24.31-5.47,6.27-11.61,12-15.86,19.46-3.2,5.61-.77,10.03,1.3,14.42,3.87,8.18,8.11,16.13,17,20.49,9.41,4.62,19.01,7.69,28.26.94,10.33-7.54,18.11-17.64,27.54-26.06,3.19-2.85,6.03-6.86,10.65-5.1,5.48,2.09,8.21,7.17,9.8,12.66,2.5,8.64,2.16,17.52,2.03,26.37-.17,11.5-3.45,22.33-8.64,32.38-6.29,12.17-15.8,21.8-27.41,29.03-7.25,4.51-15.09,7.69-23.72,9.35-11.92,2.29-23.92,2.96-35.92,4.21-9.73,1.02-19.53,4.53-27.92,10.08-8.08,5.34-15.57,11.57-23.3,17.44-2.49,1.89-5.65,2.8-7.63,5.55-.5.69-2.92.9-3.74.32-4.63-3.24-9.87-5.66-13.8-9.87,2.02-.4,4.18.72,6.11-1.06,6.1-5.63,12.89-10.44,18.63-16.55,5.75-6.13,12.56-11.06,20.24-14.85,2.22-1.09,5.9-1.31,6.42-4.82-23-8.99-39.61-24.55-50.13-46.85-1.31,1.42-2.48,2.13-2.8,3.12-2.87,8.88-9.14,15.22-15.65,21.41-.12.11-.26.22-.35.35-6.5,9.18-14.36,16.99-23.51,23.54-1.89,1.35-3.42,3.14-2.91,5.82ZM710.88,257.27c-10.49-1.11-19.65-.74-28.36,2.02-2.75.87-5.8.75-8.32,2.28-6.32,3.86-13.28,6.44-19.37,10.93-6.59,4.85-12.58,10.14-17.17,16.74-5.78,8.32-9.68,17.36-12.32,27.47-2.66,10.21-.82,19.63,1.26,28.84,1.73,7.67,5.79,15.01,10.84,21.78,8.54,11.45,18.34,20.91,31.04,27.55,7.61,3.98,15.46,6.4,23.86,8.37,11.3,2.64,22.14,1.54,32.74-1.12,8.09-2.02,15.99-5.77,22.68-11.24,5.36-4.38,10.75-8.69,14.23-14.96,3.6-6.47,6.51-12.98,8.51-20.29,2.13-7.79.34-15.08,1.73-23.88-2.2,2.05-3.22,2.97-4.2,3.93-9.7,9.45-18.46,20.13-32.36,23.99-9.36,2.6-18.56,1.36-27.23-1.97-10.84-4.16-19.55-11.32-26.28-21.1-4.62-6.72-8.47-13.96-9.87-21.6-2.02-11.01-.95-21.87,8.64-30.35,9.8-8.68,18.05-19.05,29.95-27.39Z"/>
  <path class="uuid-e2261785-f882-49bb-86e3-b8d82695ab63" d="M612.68,273.15c-6.3,8.07-10.59,16.07-13.96,24.29-2.02,4.93-4.56,10.1-4.68,15.76-.05,2.22-.66,2.59-2.95,1.89-3.21-.97-5.86-2.79-8.66-4.39-15.21-8.68-30.06-17.95-45.38-26.46-8.78-4.87-17.25-10.39-25.91-15.54-2.19-1.31-1.64-3.89-.6-5.19,6.37-7.94,2.76-15.33-1.3-22.39-.84-1.47-1.26-3.3-2.74-4.81-4.66-4.77-3.53-8.13,2.25-11.68,2.87-1.76,5.15-3.78,8.96-4.01,5.45-.34,9.74,2.36,13.59,4.86,10.56,6.83,21.68,12.67,32.25,19.42,13.52,8.64,27.72,16.15,41.03,25.13,2.02,1.36,4.31,3.14,8.1,3.13Z"/>
  <path class="uuid-90a9f6d3-4cc1-4a1f-be1f-b8ff67acfe6c" d="M571.99,416.68c-.52-2.68,1.02-4.47,2.91-5.82,9.15-6.55,17.01-14.36,23.51-23.54.09-.13.23-.24.35-.35,6.51-6.19,12.78-12.53,15.65-21.41.32-.99,1.49-1.7,2.8-3.12,10.52,22.3,27.13,37.86,50.13,46.85-.52,3.51-4.2,3.72-6.42,4.82-7.67,3.78-14.48,8.71-20.24,14.85-5.74,6.12-12.53,10.92-18.63,16.55-1.93,1.78-4.09.67-6.11,1.06-1.98-1.29-3.97-2.57-5.95-3.86.31-1.26-.47-2.78.66-3.8,4.37-3.97,7.84-9.01,12.96-12.03,3.81-2.25,6.68-5.35,9.32-8.6,1.86-2.29,2.09-5.53-.39-8.02-4.76-4.79-9.47-9.64-14.45-14.2-2.54-2.33-5.63-2.42-8.39.03-7.8,6.91-14.27,15.22-23.11,21.11-2.82,1.88-4.99,4.03-8.58,3.41-3.21.54-4.65-1.62-5.99-3.93Z"/>
  <path class="uuid-e2261785-f882-49bb-86e3-b8d82695ab63" d="M577.98,420.61c3.59.62,5.76-1.53,8.58-3.41,8.84-5.89,15.31-14.2,23.11-21.11,2.76-2.45,5.85-2.35,8.39-.03,4.98,4.56,9.69,9.41,14.45,14.2,2.48,2.5,2.25,5.74.39,8.02-2.64,3.25-5.51,6.35-9.32,8.6-5.12,3.02-8.58,8.06-12.96,12.03-1.13,1.02-.35,2.55-.66,3.8-9.31-4.66-17.35-11.27-25.93-17.04-2.14-1.44-5.91-1.2-6.06-5.07Z"/>
  <path class="uuid-90a9f6d3-4cc1-4a1f-be1f-b8ff67acfe6c" d="M456.07,414.61c-7.22-4.48-14.08-9.3-18.48-16.93-1.12-1.94-2.94-3.56-4.69-5.04-6.17-5.21-10.04-12.39-15.66-18.09-2.58-2.62-3.79-5.97.57-8.62,1.37-.83,2.46-2.1,3.73-3.1,3.01-2.37,5.4-1.19,6.98,1.68,3.63,6.59,9.97,10.71,14.6,16.35,6.12,7.46,12.41,14.75,19.39,21.41,2.11,2.02,1.24,4.26,1.49,6.46-1.49,3.52-6.19,2.71-7.94,5.88Z"/>
  <path class="uuid-6a8acdc6-fa14-4630-9ba5-e854f0146800" d="M722.46,671.94c-.87-1.69-.41-3.52-.41-5.27-.04-21.97-.06-43.94,0-65.91,0-2.79-.64-4.68-3.1-6.6-6.84-5.36-14.67-9.14-21.68-14.11-8.64-6.12-17.82-11.35-26.85-17.54-.9,1.92-.75,3.87-.75,5.78.02,39.94-.17,79.89.26,119.83.08,7.41-2.44,12.53-8.47,15.55-7.46,3.74-13.95,8.89-21.05,13.14-12.84,7.69-25.43,15.84-37.89,24.12-10.25,6.81-20.43,13.79-30.82,20.35-8.13,5.13-16.12,10.53-24.51,15.34-6.45,3.7-12.61,8.12-19.02,12.03-5.68,3.46-10.59,8.71-18.33,7.54-6-.91-10.56-4.63-15.6-7.36-10.7-5.8-20.62-12.92-30.99-19.3-10.41-6.41-20.52-13.36-30.87-19.92-15.82-10.03-31.49-20.3-47.42-30.17-8.45-5.24-17.11-10.31-24.98-16.48-1.25-.98-2.71-.37-3.96-1.58-2.54-2.46-4.08-4.74-4.06-8.66.19-40.44.13-80.88.04-121.33,0-2.31,1.5-5.63-1.03-6.81-2.61-1.22-4.78,1.75-6.95,3.12-11.06,6.96-21.94,14.19-33.09,21.02-2.4,1.47-4.84,3.34-7.2,5.1-2.69,2-3.85,4.23-3.83,7.71.17,21.3.09,42.61.09,63.91,0,1.99,0,3.98,0,6.61-5.08-3.35-9.61-6.43-14.24-9.37-8.7-5.53-17.49-10.93-26.18-16.49-4.6-2.94-9.07-6.08-13.53-9.23-.82-.58-1.76-1.01-2.01-2.49-2.11-12.49-1.59-25.08-1.84-37.65-.06-3.12,2.25-2.32,3.87-2.34,8.16-.07,16.36-.47,24.48.1,6.29.44,12-.66,16.77-4.43,9.73-7.69,20.82-13.29,30.87-20.5,8.61-6.17,17.85-11.44,26.73-17.25,8.44-5.52,16.73-11.28,25.15-16.83,10.88-7.18,22.08-13.91,32.66-21.51,6.7-4.81,13.76-8.99,20.54-13.62,7.9-5.4,15.81-10.8,23.71-16.18,7.04-4.79,14.2-9.45,21.13-14.45,6.28-4.53,12.82-8.75,19.27-13.06,5.51-3.68,10.97-7.47,16.48-11.13,4.78-3.18,9.24-3.88,13.34-.58,6.52,5.24,13.69,9.43,20.55,14.09,8.87,6.03,17.98,11.72,26.92,17.65,4.67,3.09,9.14,6.49,13.81,9.58,7.39,4.88,14.92,9.55,22.31,14.44,7,4.63,13.84,9.5,20.83,14.14,6.96,4.63,14.25,8.79,20.97,13.73,8.13,5.97,17,10.74,25.22,16.53,6.79,4.78,13.94,9,20.84,13.58,6.28,4.16,12.7,8.1,19.01,12.2,7.04,4.57,13.9,9.42,21.09,13.78,3.45,2.1,7.21,4,10.23,6.53,3.56,2.98,7.15,3.23,11.25,3.18,8-.1,16,.2,23.99-.12,4.32-.17,6.08.71,5.82,5.56-.46,8.8-.77,17.7.06,26.44.81,8.52-4.21,12.21-10.2,15.9-6.25,3.84-12.36,7.89-18.53,11.86-6.27,4.03-12.36,8.41-18.89,11.98-3.38,1.84-6,4.96-10.01,5.85ZM480.01,564.57v.03c6.82,0,13.64-.1,20.45.05,2.8.06,3.71-.92,3.69-3.72-.1-12.96-.04-25.92.03-38.87.02-3.44-1.65-5.25-4.95-5.27-12.64-.09-25.28-.14-37.91-.03-3.23.03-5.53,1.44-5.51,5.29.07,12.79.1,25.58-.03,38.37-.03,3.2,1.05,4.32,4.27,4.22,6.65-.2,13.3-.06,19.95-.06ZM541.76,564.61v-.03c6.33,0,12.66-.19,18.98.07,3.99.17,5.52-.91,5.41-5.23-.3-11.63-.09-23.28-.1-34.92,0-4.94-1.96-7.59-6.79-7.69-11.98-.25-23.97-.19-35.95,0-2.75.05-5.4,1.06-5.38,4.88.08,13.14.12,26.28-.04,39.42-.04,3.12,1.39,3.55,3.9,3.52,6.66-.08,13.32-.03,19.98-.03ZM504.12,598.42s.01,0,.02,0c0-5.98-.11-11.97.04-17.95.1-4.25-2.05-5.84-5.95-5.84-12.31,0-24.62,0-36.93-.02-2.99,0-4.54,1.33-5.61,4.24-1.07,2.9.24,5.42.18,8.12-.2,9.8-.07,19.61-.1,29.41-.01,4.25,1.93,6.14,6.28,6.09,11.98-.13,23.95-.13,35.93,0,4.37.05,6.25-1.78,6.17-6.11-.12-5.98-.03-11.96-.03-17.95ZM541.71,622.43c6.16,0,12.33-.07,18.49.02,4.07.06,5.89-1.81,5.87-5.85-.06-11.98-.14-23.97.04-35.95.06-4.03-1.89-5.89-5.42-5.94-12.49-.17-24.99-.18-37.48-.03-3.17.04-5.36,1.55-5.32,5.42.14,12.31.06,24.63.04,36.94,0,3.56,1.69,5.37,5.28,5.37,6.16,0,12.33,0,18.49,0Z"/>
  <path class="uuid-6a8acdc6-fa14-4630-9ba5-e854f0146800" d="M395.9,241.22c-.86,10.72,3.49,19.41,8.19,27.96,2.16,3.94,5.76,6.71,9.06,9.62,3.06,2.69,3.64,4.8.23,7.62-5.25,4.35-9.61,9.26-12.12,15.96-2.28,6.06-1.87,12.17-.66,17.83,1.2,5.61,3.87,11.15,7.27,16.1,2.29,3.33,4.1,7.03,6.67,10.11,1.8,2.16,1.92,2.6-.62,4.27-6.14,4.03-12.68,7.63-17.86,12.93-2.34,2.39-3.8,2.8-6.04-.02-4.34-5.43-8.25-11.22-13.77-15.67-6.11-4.93-12.55-8.82-20.04-11.63-7.25-2.71-14.3-.88-21.39-1.6-2.46-.25-4.22,1.86-6.69,2.33-5.13.99-7.33.29-10.01-4.21-2.89-4.85-5.9-9.6-8.11-14.84-.9-2.15-2.62-1.66-3.67,0-3.04,4.83-3.35,9.94-1.2,15.22,1.01,2.47,1.69,5.06,2.66,7.55.96,2.49.54,5.38-2.08,7.44-8.66,6.78-15.36,15.46-20.86,24.72-3.66,6.17-7.37,12.59-9.1,19.91-1,4.22-2.77,8.33-3.94,12.6-.47,1.72-2.07,3.1-4.36,3.19-2.15.09-2.84-.67-3.75-2.74-2.03-4.63-2-8.72-.22-13.5,1.47-3.94.98-8.47,2.49-12.68,2.9-8.07,5.52-16.12,9.85-23.69,6.08-10.64,15.58-18.7,21.27-29.54,3.76-7.17,6.9-14.82,11.66-21.27,5.4-7.31,11.71-14.02,18.25-20.49,10.65-10.54,22.95-18.62,35.61-26.41,10.52-6.47,21.64-11.6,33.3-17.09Z"/>
  <path class="uuid-6a8acdc6-fa14-4630-9ba5-e854f0146800" d="M440.24,229.45c6-2.63,11.97-5.11,17.8-7.88,1.74-.83,2.64-.62,3.62.85,2.42,3.61,4.59,7.36,7.41,10.72,2.54,3.03-.63,4.35-2.46,5.37-4.34,2.41-8.98,4.19-12.88,7.5-2.87,2.44-4.71-.63-5.4-2.52-1.86-5.09-6.07-8.66-8.1-14.05Z"/>
  <path class="uuid-6a8acdc6-fa14-4630-9ba5-e854f0146800" d="M710.88,257.27c-11.9,8.33-20.15,18.71-29.95,27.39-9.59,8.49-10.65,19.35-8.64,30.35,1.4,7.64,5.25,14.88,9.87,21.6,6.73,9.78,15.44,16.94,26.28,21.1,8.68,3.33,17.87,4.57,27.23,1.97,13.91-3.86,22.66-14.53,32.36-23.99.98-.96,2-1.88,4.2-3.93-1.39,8.81.4,16.1-1.73,23.88-2,7.31-4.91,13.81-8.51,20.29-3.48,6.26-8.87,10.58-14.23,14.96-6.68,5.46-14.58,9.21-22.68,11.24-10.6,2.65-21.43,3.76-32.74,1.12-8.4-1.97-16.26-4.39-23.86-8.37-12.7-6.64-22.5-16.1-31.04-27.55-5.05-6.77-9.11-14.12-10.84-21.78-2.08-9.2-3.92-18.62-1.26-28.84,2.63-10.11,6.53-19.15,12.32-27.47,4.59-6.6,10.58-11.89,17.17-16.74,6.09-4.49,13.05-7.07,19.37-10.93,2.52-1.53,5.57-1.41,8.32-2.28,8.7-2.76,17.87-3.13,28.36-2.02Z"/>
  <path class="uuid-e2261785-f882-49bb-86e3-b8d82695ab63" d="M480.01,564.57c-6.65,0-13.31-.14-19.95.06-3.23.1-4.31-1.02-4.27-4.22.13-12.79.1-25.58.03-38.37-.02-3.85,2.28-5.27,5.51-5.29,12.64-.1,25.28-.06,37.91.03,3.3.02,4.97,1.84,4.95,5.27-.07,12.96-.13,25.92-.03,38.87.02,2.8-.89,3.78-3.69,3.72-6.82-.14-13.64-.05-20.45-.05v-.03Z"/>
  <path class="uuid-e2261785-f882-49bb-86e3-b8d82695ab63" d="M541.76,564.61c-6.66,0-13.32-.05-19.98.03-2.51.03-3.94-.4-3.9-3.52.16-13.14.12-26.28.04-39.42-.02-3.82,2.63-4.84,5.38-4.88,11.98-.2,23.97-.26,35.95,0,4.82.1,6.78,2.75,6.79,7.69.01,11.64-.2,23.29.1,34.92.11,4.32-1.42,5.4-5.41,5.23-6.31-.27-12.65-.07-18.98-.07v.03Z"/>
  <path class="uuid-e2261785-f882-49bb-86e3-b8d82695ab63" d="M504.12,598.42c0,5.98-.09,11.97.03,17.95.09,4.33-1.8,6.16-6.17,6.11-11.98-.13-23.95-.13-35.93,0-4.36.05-6.3-1.84-6.28-6.09.03-9.8-.11-19.61.1-29.41.06-2.7-1.25-5.22-.18-8.12,1.07-2.91,2.62-4.25,5.61-4.24,12.31.02,24.62.02,36.93.02,3.91,0,6.06,1.6,5.95,5.84-.15,5.98-.04,11.96-.04,17.95,0,0-.01,0-.02,0Z"/>
  <path class="uuid-e2261785-f882-49bb-86e3-b8d82695ab63" d="M541.71,622.43c-6.16,0-12.33,0-18.49,0-3.59,0-5.29-1.81-5.28-5.37.02-12.32.1-24.63-.04-36.94-.04-3.88,2.15-5.39,5.32-5.42,12.49-.15,24.99-.14,37.48.03,3.53.05,5.49,1.9,5.42,5.94-.19,11.98-.1,23.96-.04,35.95.02,4.05-1.8,5.91-5.87,5.85-6.16-.09-12.33-.02-18.49-.02Z"/>
</svg>