<svg width="135" height="141" viewBox="0 0 135 141" fill="none" xmlns="http://www.w3.org/2000/svg">
<path d="M83.5601 49.58H69.48V62.08H83.5601V49.58Z" fill="#FDD837"/>
<path d="M13.9401 59.21L28.74 50.59V101.75L67.95 123.16L107.07 102.47V51.45L121.87 59.35V113.39L68.84 140.84L13.9401 113.53V59.21Z" fill="#FDD837"/>
<path d="M11.9301 56.48L67.95 14.08L125.75 57.2L134.95 53.03L111.52 34.92V11.93H95.71L95.5701 21.99L67.95 0L0 53.46L11.9301 56.48Z" fill="#FDD837"/>
<path d="M66.1 49.58H52.02V62.08H66.1V49.58Z" fill="#FDD837"/>
<path d="M66.26 65.53H52.1801V78.03H66.26V65.53Z" fill="#FDD837"/>
<path d="M83.72 65.53H69.64V78.03H83.72V65.53Z" fill="#FDD837"/>
</svg>
